# xmcd
#
# Track frame offsets:
#	151
#	15358
#	33788
#	45658
#	60109
#	73793
#	85117
#	97517
#	108778
#	125171
#	139335
#
# Disc length: 2085 seconds
#
# Revision: 1
# Processed by: cddbd v1.5.2PL0 Copyright (c) Steve Scherf et al.
# Submitted via: audiograbber 1.83.01
#
DISCID=7d08230b
DTITLE=Phyllis Leonard - Looking Back At Life
DYEAR=2000
DGENRE=Country
TTITLE0=Colorado Rain
TTITLE1=Looking Back At Life
TTITLE2=I Have A Picture
TTITLE3=Last Call
TTITLE4=Carry Ol´ Roy Back Home
TTITLE5=After All
TTITLE6=Hopless Yours
TTITLE7=When The Sun Comes Up In The West
TTITLE8=You Lead And I´ll Follow
TTITLE9=Borrow Love
TTITLE10=Touch Me
EXTD=
EXTT0=
EXTT1=
EXTT2=
EXTT3=
EXTT4=
EXTT5=
EXTT6=
EXTT7=
EXTT8=
EXTT9=
EXTT10=
PLAYORDER=
